<svg width="76" height="76" fill="none" xmlns="http://www.w3.org/2000/svg"><circle cx="38" cy="38" r="38" fill="#FEF8E6"/><path d="M32.374 19.905a7.854 7.854 0 00-2.511-2.131 7.425 7.425 0 00-6.304-.341 7.743 7.743 0 00-2.706 1.849 8.222 8.222 0 00-1.758 2.845 8.551 8.551 0 00.324 6.63 8.106 8.106 0 002.026 2.64 19.22 19.22 0 00-.924 5.917c0 4.524 1.554 8.668 4.133 11.87l-3.706 3.897a1.53 1.53 0 00-.337.497 1.598 1.598 0 00.3 1.707c.139.145.303.26.485.337a1.393 1.393 0 001.138-.021c.179-.084.34-.205.473-.355l3.705-3.897c3.153 2.812 7.154 4.353 11.288 4.346 4.302 0 8.242-1.634 11.287-4.346l3.706 3.897c.133.15.294.271.473.355a1.396 1.396 0 001.622-.316 1.54 1.54 0 00.321-.51 1.602 1.602 0 00-.02-1.197 1.534 1.534 0 00-.338-.497l-3.705-3.897c2.674-3.315 4.139-7.523 4.133-11.87a19.22 19.22 0 00-.925-5.917 8.106 8.106 0 002.026-2.64 8.553 8.553 0 00.324-6.63 8.224 8.224 0 00-1.757-2.845 7.743 7.743 0 00-2.706-1.85 7.425 7.425 0 00-6.304.342 7.855 7.855 0 00-2.51 2.13 16.684 16.684 0 00-5.627-.97 16.681 16.681 0 00-5.626.972zm-6.027.049a4.7 4.7 0 013.2 1.266c-2.88 1.679-5.255 4.175-6.85 7.206a5.228 5.228 0 01-1.153-2.618 5.345 5.345 0 01.381-2.856 5.042 5.042 0 011.791-2.184 4.684 4.684 0 012.631-.814zm20.105 1.266a4.713 4.713 0 013.36-1.265 4.745 4.745 0 013.275 1.493 5.236 5.236 0 011.42 3.444 5.268 5.268 0 01-1.203 3.534c-1.597-3.03-3.97-5.527-6.852-7.206zm-9.909 5.882c.387 0 .757.162 1.03.449.273.287.427.677.427 1.083v8.68h5.34c.387 0 .757.161 1.03.449.274.287.427.676.427 1.083 0 .406-.153.796-.426 1.083a1.421 1.421 0 01-1.03.448h-6.798c-.386 0-.757-.16-1.03-.448a1.573 1.573 0 01-.426-1.083V28.634c0-.406.153-.796.426-1.083a1.421 1.421 0 011.03-.449z" fill="#FEBB12"/></svg>