<svg width="76" height="76" fill="none" xmlns="http://www.w3.org/2000/svg"><circle cx="38" cy="38" r="38" fill="#FFF3EC"/><g clip-path="url(#clip0)"><path d="M20.704 17.733c-.292 0-.437.207-.437.466v40.45c0 .26.194.466.437.466H53.77c.243 0 .437-.207.437-.466V18.2c0-.31-.194-.466-.437-.466H20.704zm4.418 5.18H49.4V33.27H25.122V22.913zm0 15.537h4.856v5.18h-4.856v-5.18zm9.711 0h4.856v5.18h-4.856v-5.18zm9.711 0H49.4v15.538h-4.856V38.45zM25.122 48.81h4.856v5.18h-4.856v-5.18zm9.711 0h4.856v5.18h-4.856v-5.18z" fill="#FF7B43"/></g><defs><clipPath id="clip0"><path fill="#fff" transform="translate(20.267 17.733)" d="M0 0h38.844v41.434H0z"/></clipPath></defs></svg>