<svg width="81" height="81" fill="none" xmlns="http://www.w3.org/2000/svg"><circle cx="40.5" cy="40.5" r="40.5" fill="#E5F5F2"/><g clip-path="url(#clip0)" fill-rule="evenodd" clip-rule="evenodd" fill="#019F78"><path d="M41.689 46.6v-5.621c0-1.825 1.395-3.308 3.114-3.308h11.439V34.17c0-1.66-.984-3.048-2.33-3.501v.002l-4.021-.034-.049-.141H31.794l-.343.116-6.366-.004-.012-.052c-1.55.293-2.796 1.696-2.796 3.5v19.368c0 2.026 1.578 3.787 3.387 3.787h27.31c1.81 0 3.27-1.647 3.27-3.673V50H44.806c-1.72 0-3.117-1.576-3.117-3.4z"/><path d="M58.755 40.331H46.561c-1.288 0-2.333 1.14-2.333 2.545v1.987c0 1.403 1.045 2.543 2.334 2.543h12.193c1.288 0 2.335-1.14 2.335-2.543v-1.987c0-1.408-1.047-2.545-2.335-2.545zm-7.22 4.761h-5.022v-2.474h5.021v2.474zM31.796 30.495l16.149-5.526 1.9 5.526h3.129c.329 0 .64.07.94.17l-3.383-9.84-25.741 8.574.285 1.16c.192-.037.39-.062.59-.062h6.131v-.002z"/></g><defs><clipPath id="clip0"><path fill="#fff" transform="translate(19.8 20.7)" d="M0 0h41.4v38.965H0z"/></clipPath></defs></svg>