<svg width="76" height="76" fill="none" xmlns="http://www.w3.org/2000/svg"><circle cx="38" cy="38" r="38" fill="#E3E5FF"/><g clip-path="url(#clip0)"><path d="M38 19.169c-10.727 0-19.422 9.186-19.422 20.517 0 3.762.96 7.286 2.634 10.316a2.11 2.11 0 001.85 1.083h29.876a2.11 2.11 0 001.85-1.083 21.298 21.298 0 002.634-10.316c0-11.331-8.695-20.517-19.422-20.517zm0 4.56c.992 0 1.793.72 2.045 1.684-.075.161-.178.301-.233.475l-.622 1.971c-.346.25-.74.429-1.19.429-1.19 0-2.157-1.021-2.157-2.28s.965-2.28 2.157-2.28zM25.052 44.245c-1.192 0-2.158-1.021-2.158-2.28s.966-2.28 2.158-2.28 2.158 1.021 2.158 2.28-.966 2.28-2.158 2.28zm3.237-11.399c-1.192 0-2.158-1.02-2.158-2.28 0-1.258.966-2.28 2.158-2.28s2.158 1.022 2.158 2.28c0 1.26-.966 2.28-2.158 2.28zm16.642-5.159l-4.136 13.11a4.637 4.637 0 011.521 3.448c0 .835-.228 1.606-.599 2.28h-7.434a4.705 4.705 0 01-.599-2.28c0-2.418 1.787-4.377 4.04-4.53l4.136-13.11c.282-.894 1.196-1.385 2.048-1.08.847.298 1.305 1.267 1.023 2.163zm.988 4.076l1.047-3.317a2.03 2.03 0 01.745-.159c1.192 0 2.158 1.021 2.158 2.28s-.966 2.28-2.158 2.28c-.767 0-1.409-.447-1.792-1.084zm5.03 12.482c-1.192 0-2.159-1.021-2.159-2.28s.967-2.28 2.158-2.28c1.192 0 2.158 1.021 2.158 2.28s-.966 2.28-2.158 2.28z" fill="#6167E9"/></g><defs><clipPath id="clip0"><path fill="#fff" transform="translate(18.578 16.889)" d="M0 0h38.844v36.476H0z"/></clipPath></defs></svg>