<svg width="76" height="76" fill="none" xmlns="http://www.w3.org/2000/svg"><circle cx="38" cy="38" r="38" fill="#EBF7FF"/><path d="M37.422 27.04c-1.843 0-3.49.853-4.577 2.189a6.06 6.06 0 00-1.281 2.872 6.1 6.1 0 00.326 3.136 6.014 6.014 0 001.843 2.538 5.893 5.893 0 002.856 1.245 11.956 11.956 0 016.768-5.886v-.075c0-1.455-.51-2.79-1.358-3.83a5.892 5.892 0 00-4.577-2.19zm18.725 9.68a11.845 11.845 0 00-4.805-3.43 11.687 11.687 0 00-5.838-.664 8.252 8.252 0 00-.921-3.397h9.024a3.22 3.22 0 012.29.961c.606.616.947 1.451.947 2.322v1.095c0 1.05-.237 2.11-.697 3.112zm-20.436 4.548a12.203 12.203 0 00-.447 3.284A12.07 12.07 0 0040 54.172c-.85.155-1.713.232-2.577.23-6.776 0-10.79-4.441-10.79-8.756v-1.094a3.316 3.316 0 01.244-1.258 3.246 3.246 0 011.753-1.778 3.19 3.19 0 011.24-.248h5.842zm-10.557.622C20.6 40.64 18 37.08 18 33.607v-1.095c0-.87.341-1.706.948-2.322a3.214 3.214 0 012.289-.961h9.027a8.268 8.268 0 00-.934 3.83 8.29 8.29 0 00.673 3.285 8.187 8.187 0 001.916 2.735h-2.05c-.961 0-1.906.26-2.735.755a5.436 5.436 0 00-1.98 2.056zM28.79 15c1.574 0 3.084.634 4.197 1.763a6.063 6.063 0 011.738 4.257 6.064 6.064 0 01-1.739 4.256 5.892 5.892 0 01-4.196 1.764 5.892 5.892 0 01-4.196-1.764 6.064 6.064 0 01-1.738-4.256c0-1.597.625-3.128 1.738-4.257A5.892 5.892 0 0128.79 15zm17.264 0c1.574 0 3.084.634 4.197 1.763a6.063 6.063 0 011.738 4.257 6.064 6.064 0 01-1.738 4.256 5.892 5.892 0 01-4.197 1.764 5.892 5.892 0 01-4.196-1.764 6.064 6.064 0 01-1.738-4.256c0-1.597.625-3.128 1.738-4.257A5.892 5.892 0 0146.054 15zm1.08 39.402A9.642 9.642 0 0054 51.517a9.923 9.923 0 002.844-6.965A9.923 9.923 0 0054 37.586a9.642 9.642 0 00-6.867-2.885 9.642 9.642 0 00-6.866 2.885 9.923 9.923 0 00-2.845 6.966 9.923 9.923 0 002.845 6.965 9.642 9.642 0 006.866 2.885zm0-15.323c.285 0 .56.115.762.32.203.206.316.484.316.775v3.283h3.237c.287 0 .561.115.763.32a1.103 1.103 0 010 1.549 1.07 1.07 0 01-.763.32h-3.237v3.284c0 .29-.113.568-.316.774a1.071 1.071 0 01-1.526 0 1.103 1.103 0 01-.316-.774v-3.284h-3.237c-.286 0-.56-.115-.763-.32a1.103 1.103 0 010-1.548 1.07 1.07 0 01.763-.32h3.237v-3.284c0-.29.114-.57.316-.774a1.07 1.07 0 01.763-.32z" fill="#3DAFFF"/></svg>