<svg width="76" height="76" fill="none" xmlns="http://www.w3.org/2000/svg"><circle cx="38" cy="38" r="38" fill="#DAFFFF"/><path d="M57.422 38c0-10.727-8.695-19.422-19.422-19.422S18.578 27.273 18.578 38 27.273 57.422 38 57.422 57.422 48.727 57.422 38zM29.26 31.676c.674-.742 1.777-1.445 3.399-1.445 2.237 0 3.678 1.538 4.185 3.226.492 1.645.194 3.68-1.204 5.085-.485.466-1 .9-1.54 1.301l-.078.06c-.544.42-1.03.8-1.456 1.224-.496.497-.902 1.04-1.137 1.729h4.143a1.457 1.457 0 110 2.913h-5.827a1.457 1.457 0 01-1.456-1.457c0-2.422 1.017-4.045 2.222-5.246.575-.575 1.2-1.058 1.728-1.468l.006-.004c.556-.43.987-.763 1.33-1.107.529-.532.713-1.408.478-2.195-.223-.74-.718-1.148-1.394-1.148-.686 0-1.04.267-1.243.492-.12.132-.217.282-.288.445v.005a1.457 1.457 0 11-2.773-.897l.068-.186c.2-.487.482-.936.835-1.327h.002zm11.168-1.445a1.457 1.457 0 011.456 1.457v5.341h2.914v-5.341a1.456 1.456 0 112.913 0v12.566a1.457 1.457 0 01-2.913 0v-4.312h-4.37a1.457 1.457 0 01-1.457-1.456v-6.798a1.456 1.456 0 011.457-1.457z" fill="#21D5D5"/></svg>