<svg width="30" height="31" fill="none" xmlns="http://www.w3.org/2000/svg"><ellipse cx="15" cy="15.589" rx="15" ry="15.216" fill="#FF9739"/><path d="M7.013 15.874l3.449 1.304 1.344 4.387c.059.297.41.356.643.178l1.929-1.6c.175-.178.468-.178.701 0l3.449 2.549c.234.178.585.06.643-.237l2.572-12.451c.058-.297-.234-.593-.526-.474L7.013 15.103c-.35.118-.35.652 0 .77zm4.618.652l6.78-4.21c.117-.06.234.119.117.178l-5.553 5.277c-.175.178-.35.415-.35.711l-.176 1.423c0 .178-.292.237-.35 0l-.702-2.608c-.175-.297-.058-.653.234-.771z" fill="#fff"/></svg>