<svg width="30" height="31" fill="none" xmlns="http://www.w3.org/2000/svg"><ellipse cx="15" cy="15.589" rx="15" ry="15.216" fill="#FF9739"/><path d="M19.69 8.396a22.914 22.914 0 00-8.685 0c-1.265.277-2.86 1.828-3.134 3.046a17.643 17.643 0 000 7.199c.33 1.218 1.924 2.769 3.134 3.046.055 0 .11.055.11.11v3.489c0 .166.22.277.33.11l1.649-1.716s1.319-1.384 1.539-1.606c0 0 .055-.055.11-.055 1.649.055 3.353-.11 5.002-.388 1.265-.277 2.86-1.827 3.134-3.045a17.642 17.642 0 000-7.2c-.33-1.162-1.924-2.713-3.189-2.99zm.055 10.411c-.274.554-.604.997-1.154 1.274l-.495.166a6.502 6.502 0 01-.55-.166c-1.759-.72-3.408-1.717-4.727-3.157a13.332 13.332 0 01-1.814-2.768c-.22-.499-.44-.942-.605-1.44-.165-.443.11-.886.385-1.218a2.53 2.53 0 01.99-.72c.274-.167.549-.056.769.166.44.553.88 1.107 1.21 1.716.22.388.164.831-.22 1.108-.11.055-.166.11-.276.221-.054.056-.164.111-.22.222a.542.542 0 00-.054.498c.44 1.274 1.264 2.27 2.528 2.824.22.111.385.167.66.167.385-.056.55-.499.825-.72.275-.222.604-.222.934-.056.275.166.55.388.88.61.275.22.55.387.825.609.164.11.22.387.11.664zm-2.309-4.153c-.11 0-.055 0 0 0-.22 0-.274-.11-.33-.277 0-.11 0-.277-.054-.388a1.054 1.054 0 00-.385-.609l-.33-.166c-.165-.055-.275-.055-.44-.055-.165-.056-.22-.166-.22-.333 0-.11.165-.221.275-.221.88.055 1.54.554 1.65 1.606v.221c0 .111-.055.222-.166.222zm-.55-2.437c-.274-.11-.549-.221-.879-.277-.11 0-.275-.055-.385-.055-.165 0-.274-.11-.22-.277 0-.166.11-.277.275-.221.55.055 1.045.166 1.54.387.99.499 1.539 1.33 1.704 2.437v.719c-.055.221-.44.277-.495 0 0-.056-.055-.166-.055-.222 0-.498-.11-.996-.33-1.44-.33-.498-.714-.83-1.154-1.052zm2.97 3.323c-.166 0-.276-.166-.276-.332 0-.333-.054-.665-.11-.997-.22-1.772-1.649-3.212-3.353-3.489-.275-.055-.55-.055-.77-.11-.164 0-.384 0-.44-.222-.054-.166.11-.332.276-.332h.11c2.254.055.11 0 0 0 2.308.055 4.233 1.606 4.617 3.931.055.388.11.776.11 1.219.11.166 0 .332-.165.332z" fill="#fff"/></svg>