<svg width="30" height="31" fill="none" xmlns="http://www.w3.org/2000/svg"><ellipse cx="15" cy="15.589" rx="15" ry="15.216" fill="#FF9739"/><path d="M20.945 9.55a7.765 7.765 0 00-5.543-2.33c-4.335 0-7.847 3.55-7.847 7.933a8.11 8.11 0 001.043 3.939L7.5 23.197l4.17-1.11a7.933 7.933 0 003.732.943c4.336 0 7.848-3.55 7.848-7.933-.055-2.052-.823-4.049-2.305-5.547zm-1.756 8.432c-.165.444-.933.888-1.317.943-.33.056-.768.056-1.207-.055-.275-.111-.659-.222-1.098-.444-1.976-.832-3.238-2.83-3.348-2.996-.11-.11-.823-1.054-.823-2.052 0-.999.494-1.443.659-1.664.165-.222.384-.222.549-.222h.384c.11 0 .274-.056.439.333.165.388.549 1.386.604 1.442a.357.357 0 010 .333c-.055.11-.11.222-.22.333-.11.11-.22.277-.274.332-.11.111-.22.222-.11.389.11.222.494.832 1.097 1.387.769.665 1.372.887 1.592.998.22.111.33.055.439-.055.11-.111.494-.555.604-.777.11-.222.274-.166.439-.111.164.055 1.152.555 1.317.666.22.11.329.166.384.222.055.166.055.554-.11.998z" fill="#fff"/></svg>