<svg width="33" height="30" fill="none" xmlns="http://www.w3.org/2000/svg"><g clip-path="url(#clip0)" fill="#393939"><path d="M7.073 24.332a3.486 3.486 0 00-.999-.705 3.733 3.733 0 00-1.435-.358h-.22a3.726 3.726 0 00-1.967.528 3.368 3.368 0 00-1.295 1.388 3.28 3.28 0 00-.22.62 2.721 2.721 0 000 1.314c.052.213.126.422.22.622.283.56.731 1.037 1.295 1.378.58.355 1.265.54 1.964.532.272.002.542-.024.807-.078a4.25 4.25 0 00.721-.224l.104-.052c.053-.029.11-.054.167-.074l.155-.054.08.11a.784.784 0 00.301.273.882.882 0 00.412.098.888.888 0 00.585-.219.706.706 0 00.195-.234.642.642 0 00.072-.286v-2.45a2.838 2.838 0 00-.256-1.152 3.37 3.37 0 00-.686-.977zm-.913 2.803a1.762 1.762 0 01-.408.54 1.88 1.88 0 01-.604.36 2.111 2.111 0 01-.738.131c-.244 0-.484-.047-.706-.138a2.112 2.112 0 01-.598-.363 1.804 1.804 0 01-.423-.538 1.44 1.44 0 01-.163-.669c0-.225.053-.447.154-.652.1-.205.24-.39.415-.547a1.962 1.962 0 012.046-.372c.227.088.433.215.609.372.174.157.315.342.414.546a1.533 1.533 0 01.002 1.335v-.005zm6.776-3.85a4.246 4.246 0 00-1.356.27 3.708 3.708 0 00-1.118.66c-.315.28-.568.611-.747.977-.19.372-.287.778-.285 1.189v2.55c-.004.1.016.199.057.29a.776.776 0 00.44.397.82.82 0 00.303.048.891.891 0 00.602-.19.682.682 0 00.184-.219.619.619 0 00.072-.268v-2.514a1.525 1.525 0 01.141-.68 1.74 1.74 0 01.4-.541c.173-.158.38-.282.607-.366a2.02 2.02 0 01.715-.125.93.93 0 00.6-.224.684.684 0 00.178-.232.626.626 0 00.06-.277.792.792 0 00-.267-.53.797.797 0 00-.268-.163.859.859 0 00-.318-.052zm8.377 4.669a.65.65 0 00-.188-.218.896.896 0 00-.595-.2h-.016a.936.936 0 00-.6.2 1.582 1.582 0 01-.557.312 2.354 2.354 0 01-.75.102 2.059 2.059 0 01-.758-.14 1.853 1.853 0 01-.607-.384 1.7 1.7 0 01-.357-.555 1.542 1.542 0 01-.106-.663v-1.643h1.875a.841.841 0 00.31-.063.773.773 0 00.256-.172.74.74 0 00.187-.237.68.68 0 00-.16-.816.753.753 0 00-.272-.16.81.81 0 00-.322-.04H16.78v-1.433a.575.575 0 00-.058-.277.633.633 0 00-.186-.226 1.038 1.038 0 00-.644-.2 1.004 1.004 0 00-.633.2.633.633 0 00-.186.226.574.574 0 00-.059.277v4.552c-.008.461.092.918.296 1.34.189.388.462.738.804 1.027a3.69 3.69 0 001.187.66 4.45 4.45 0 001.444.233c.454.003.904-.077 1.323-.236.42-.164.805-.397 1.133-.687a.56.56 0 00.154-.226.708.708 0 00.044-.283.659.659 0 00-.085-.27zm11.445.433l-2.13-1.926 2.128-1.926a.719.719 0 00.168-.242.665.665 0 00.052-.283.636.636 0 00-.051-.278.69.69 0 00-.17-.236.876.876 0 00-.58-.228h-.008a.811.811 0 00-.294.056.749.749 0 00-.246.158L29.45 25.41l-2.13-1.91a1.022 1.022 0 00-.582-.23.797.797 0 00-.319.053c-.1.04-.19.098-.261.173a.864.864 0 00-.247.526.539.539 0 00.047.265.588.588 0 00.173.218l2.176 1.954-2.176 1.954a.666.666 0 00-.173.238.613.613 0 00-.047.283.719.719 0 00.249.512.728.728 0 00.268.161.8.8 0 00.319.04c.215-.006.422-.076.588-.2l2.121-1.919 2.13 1.882a.81.81 0 00.274.181.88.88 0 00.332.063.848.848 0 00.311-.046.792.792 0 00.45-.399.633.633 0 00.055-.293.681.681 0 00-.066-.288.74.74 0 00-.185-.241zm-8.639-4.905a.923.923 0 00-.172-.106.786.786 0 00-.402-.103.786.786 0 00-.4.103.916.916 0 00-.173.106.637.637 0 00-.185.215.576.576 0 00-.066.267v4.992c0 .098.024.195.07.284a.681.681 0 00.197.23.844.844 0 00.549.18h.028a.844.844 0 00.55-.18.681.681 0 00.196-.23.618.618 0 00.07-.284v-4.992a.58.58 0 00-.071-.268.64.64 0 00-.191-.214zm.044-2.102a.74.74 0 00-.253-.164.804.804 0 00-.305-.056.876.876 0 00-.58.2.692.692 0 00-.187.225.63.63 0 00-.07.274.667.667 0 00.043.303.722.722 0 00.177.26.958.958 0 00.613.212.802.802 0 00.302-.056.742.742 0 00.251-.164.704.704 0 00.236-.52.704.704 0 00-.236-.52l.009.007z"/></g><g clip-path="url(#clip1)" fill="#393939"><path d="M16.927 7.974c-2.41 0-4.602 1.96-4.602 4.38a4.13 4.13 0 00.846 2.479c1.17-.66 2.44-1.126 3.765-1.126 1.326 0 2.593.466 3.765 1.125a4.13 4.13 0 00.846-2.479c-.009-2.418-2.202-4.38-4.62-4.38z"/><path d="M16.925 0C11.008 0 6.211 11.89 6.211 17.44c0 4.308 2.89-.318 6.95-2.607a4.088 4.088 0 01-.844-2.592 4.108 4.108 0 01.986-2.545c-.196.444-.297.92-.296 1.401 0 .987.413 1.932 1.147 2.63a4.028 4.028 0 002.771 1.089c1.04 0 2.036-.392 2.77-1.09a3.625 3.625 0 001.149-2.629c0-.48-.1-.957-.296-1.401a4.11 4.11 0 01.985 2.545 4.089 4.089 0 01-.843 2.592c4.061 2.287 6.95 6.915 6.95 2.607C27.64 11.893 22.841 0 16.924 0z"/></g><defs><clipPath id="clip0"><path fill="#fff" transform="translate(.857 21.127)" d="M0 0h32.143v8.537H0z"/></clipPath><clipPath id="clip1"><path fill="#fff" transform="translate(6.215)" d="M0 0h21.428v19.208H0z"/></clipPath></defs></svg>