<svg width="186" height="170" fill="none" xmlns="http://www.w3.org/2000/svg"><path d="M84.544 71.118l22.383 12.416c.258.143.472.347.619.592a1.512 1.512 0 01-.015 1.597 1.67 1.67 0 01-.631.582L84.517 98.223a1.82 1.82 0 01-.86.21 1.819 1.819 0 01-.857-.216 1.667 1.667 0 01-.627-.587 1.52 1.52 0 01-.23-.8V84.751a1.63 1.63 0 013.26 0v9.029a.2.2 0 00.292.177l17.146-8.881a.2.2 0 00.003-.353l-17.145-9.325a.2.2 0 00-.296.176v2.082a1.63 1.63 0 01-3.26 0v-5.16c0-.283.08-.561.233-.806.153-.245.373-.448.637-.588a1.821 1.821 0 011.73.016z" stroke="#FF9739" stroke-width="1.5"/><path d="M66.579 58.53a1.102 1.102 0 01.086-1.634c6.114-4.885 13.689-7.923 21.72-8.695 8.443-.812 16.944.925 24.249 4.955 7.304 4.03 13.026 10.141 16.322 17.43 3.297 7.29 3.993 15.374 1.986 23.06-2.006 7.687-6.609 14.57-13.13 19.634-6.522 5.065-14.616 8.043-23.091 8.496-8.475.454-16.883-1.642-23.983-5.977-6.739-4.115-11.963-10.042-14.988-16.98a1.133 1.133 0 01.684-1.52 1.195 1.195 0 011.477.665c2.844 6.541 7.764 12.127 14.114 16.005 6.68 4.079 14.588 6.05 22.561 5.623 7.973-.426 15.588-3.228 21.723-7.992 6.134-4.765 10.465-11.239 12.352-18.47 1.888-7.231 1.233-14.836-1.868-21.694-3.101-6.858-8.484-12.606-15.356-16.397-6.871-3.792-14.868-5.426-22.812-4.662-7.584.729-14.737 3.607-20.5 8.234a1.154 1.154 0 01-1.546-.08z" fill="#fff"/><path d="M54.998 93.146a1.14 1.14 0 01-1.366-.86 34.474 34.474 0 01.46-16.59c1.513-5.464 4.35-10.527 8.285-14.804a1.111 1.111 0 011.536-.086c.503.425.539 1.187.096 1.674-3.624 3.989-6.24 8.693-7.644 13.763a32.429 32.429 0 00-.463 15.469 1.203 1.203 0 01-.904 1.434z" fill="#FF9739"/><path d="M106.885 60.605c.296-.499.936-.69 1.433-.412 4.652 2.592 8.497 6.282 11.141 10.704 2.813 4.704 4.155 10.05 3.873 15.43-.282 5.379-2.176 10.577-5.467 15.004-3.292 4.427-7.849 7.905-13.155 10.041a32.994 32.994 0 01-16.863 2.04c-5.715-.801-11.075-3.08-15.47-6.577-4.397-3.496-7.653-8.071-9.4-13.205a26.931 26.931 0 01-.759-14.748c.14-.605.766-.975 1.372-.83.604.143.958.744.821 1.349a24.962 24.962 0 00.721 13.592c1.62 4.759 4.638 8.999 8.712 12.24 4.074 3.241 9.042 5.353 14.34 6.096a30.581 30.581 0 0015.629-1.891c4.918-1.98 9.142-5.204 12.193-9.307 3.051-4.103 4.807-8.922 5.068-13.908.261-4.986-.982-9.94-3.59-14.3-2.428-4.062-5.949-7.457-10.208-9.856a1.052 1.052 0 01-.391-1.462zM67.22 70.23a1.048 1.048 0 01-.319-1.536c3.271-4.472 7.834-8.002 13.171-10.175 5.39-2.195 11.335-2.908 17.133-2.067a.99.99 0 01.83 1.193c-.118.575-.688.958-1.273.875a30.575 30.575 0 00-15.785 1.93c-4.945 2.012-9.172 5.282-12.203 9.424-.36.493-1.037.657-1.553.357zm5.125 61.859l1.588.323-2.049 8.733 4.645.946 2.048-8.733 1.588.323-2.398 10.223-7.82-1.593 2.398-10.222zm-11.209 4.912l-3.02-1.539c-1.248-.635-2.061-1.459-2.44-2.47-.384-1.002-.278-2.012.32-3.03.602-1.026 1.46-1.659 2.572-1.899 1.113-.239 2.293-.041 3.54.594l1.577.804 1.321-2.251 1.444.736-5.314 9.055zm1.783-6.233l-1.67-.852c-.767-.39-1.501-.54-2.202-.449-.716.095-1.278.491-1.688 1.19-.4.681-.45 1.328-.15 1.941.3.612.83 1.111 1.587 1.497l1.67.851 2.453-4.178zm-13.234-7l-3.627-3.213 1.093-1.071 3.627 3.212 2.142-2.1-3.897-3.451 1.093-1.071 5.11 4.525-7.498 7.351-5.11-4.525 1.093-1.071 3.897 3.451 2.078-2.037zm-8.371-11.254l-.774-1.125c-.692-1.005-1.446-1.263-2.261-.776-.395.236-.616.548-.663.937-.053.381.094.833.443 1.357l.05.074c.284.412.674.784 1.169 1.116a4.25 4.25 0 001.52.678l-.241 1.365a5.753 5.753 0 01-2.098-.804 5.461 5.461 0 01-1.615-1.528l-.06-.087c-.363-.527-.6-1.03-.712-1.51-.118-.487-.12-.904-.008-1.251.113-.346.267-.642.462-.886.196-.245.43-.449.705-.613.498-.298 1.008-.446 1.53-.444.514.007.982.168 1.406.485-.223-.553-.23-1.083-.023-1.591.194-.511.561-.928 1.102-1.251.772-.462 1.576-.57 2.411-.325.83.236 1.614.884 2.354 1.941l.051.074c.482.7.768 1.442.859 2.225a4.646 4.646 0 01-.276 2.24l-1.432-.365a3.372 3.372 0 00.166-1.686 3.935 3.935 0 00-.656-1.666l-.05-.074c-.398-.577-.825-.96-1.284-1.151-.467-.186-.937-.138-1.409.144-.412.246-.652.576-.72.988-.072.404.073.87.436 1.397l.918 1.334-1.3.778zm-5.454-11.801l-1.666-4.55 1.459-.463 1.666 4.549 2.859-.909-1.79-4.887 1.458-.464 2.347 6.409-10.006 3.182-2.347-6.409 1.457-.463 1.79 4.887 2.774-.882zm4.123-19.937l.154 1.612-4.515.375.459 4.808 4.514-.374.154 1.612-10.464.868-.154-1.613 4.425-.367-.459-4.808-4.425.367-.154-1.613 10.465-.867zm-6.872-11.431l8.82 1.633-.337 1.584-8.82-1.633-.638 2.993-1.505-.278 1.617-7.585 1.505.279-.642 3.007zm11.456-8.288l1.722 1.805-.807 1.592-7.651-8.095.427-.843 11.55.402L49 57.51l-2.583-.105-1.85 3.652zm-3.821-3.923l2.679 2.799 1.342-2.65-4.021-.149zm21.22-9.358l-1.089 1.2-1.52-1.197-5.23 5.766-8.249-6.498 1.089-1.2 7.046 5.55 3.215-3.543-7.046-5.55 1.088-1.2 7.046 5.55.928-1.022 2.722 2.144zM72.2 40.27l-1.379.85-4.292-6.04-.43 8.955-.805.497-6.082-8.559 1.378-.85 4.293 6.039.43-8.955.804-.496 6.083 8.558zm13.489-3.693l-1.556.452-.876-2.617-1.585.46c-.512.17-.877.386-1.095.647-.209.259-.413.75-.613 1.474l-.353 1.351-1.758.511.46-1.694c.278-1.059.617-1.777 1.018-2.153-.835-.039-1.554-.267-2.157-.684-.594-.42-1.022-1.02-1.282-1.797-.365-1.09-.267-2.087.295-2.99.559-.911 1.506-1.56 2.84-1.949l3.328-.968 3.334 9.957zm-4.404-8.053l-1.916.557c-.797.231-1.391.612-1.783 1.143-.391.53-.466 1.155-.225 1.876.248.74.69 1.225 1.326 1.456.642.219 1.367.211 2.173-.023l1.916-.557-1.491-4.452zm34.927 12.656l-1.057-3.765c-.151-.54-.304-.915-.457-1.124-.144-.206-.422-.367-.837-.482l-1.285-.36-1.392 4.327-1.56-.435 3.214-9.996 1.561.436-1.346 4.184 1.17.326c.405.113.733.122.984.026s.604-.33 1.06-.7l2.943-2.493 1.777.496-3.432 2.886c-.756.588-1.325.922-1.707 1.001a1.5 1.5 0 01.483.602c.138.257.281.66.43 1.21l1.213 4.353-1.762-.492zm12.542-2.162c1.491-.32 2.869-.097 4.134.672 1.265.768 2.041 1.852 2.328 3.253.301 1.397.027 2.702-.821 3.915s-2.022 1.977-3.521 2.292c-1.485.312-2.86.084-4.125-.684-1.265-.769-2.044-1.849-2.337-3.241-.287-1.4-.006-2.707.842-3.92.849-1.212 2.015-1.975 3.5-2.287zm4.898 4.201c-.197-.972-.744-1.73-1.641-2.276-.898-.545-1.863-.705-2.897-.48-1.02.22-1.845.782-2.475 1.684-.636.909-.857 1.843-.663 2.802.202.964.753 1.718 1.65 2.263.897.545 1.86.71 2.888.493 1.028-.216 1.86-.779 2.497-1.688.63-.902.844-1.834.641-2.798zm7.216 20.59l-1.075-1.212 5.917-4.56-5.857.074 1.168-5.358-5.917 4.56-1.075-1.213 8.317-6.408.627.707-1.421 6.403 7.016-.097.617.695-8.317 6.409zm5.044 13.366l-.611-1.5 8.456-2.99-1.787-4.39-8.457 2.99-.611-1.5 9.899-3.501 3.01 7.39-9.899 3.501zm1.685 8.15l-2.429-.788-.147-1.779 10.831 3.566.078.942-10.118 5.03-.148-1.78 2.271-1.11-.338-4.081zM152.943 87l-3.773-1.217.245 2.96L152.943 87zm-9.73 17.653l.325-1.587 4.46.792.969-4.731-4.46-.793.325-1.587 10.338 1.837-.325 1.587-4.372-.777-.968 4.732 4.371.777-.325 1.587-10.338-1.837zm-8.016 12.145l.782-1.419 6.684 3.199-4.005-8.06.457-.827 9.471 4.533-.782 1.419-6.684-3.199 4.004 8.059-.456.828-9.471-4.533zm-10.491 9.8l1.152-1.138 5.565 4.893-1.616-8.793.672-.664 7.886 6.933-1.153 1.138-5.565-4.892 1.617 8.792-.673.664-7.885-6.933z" fill="#fff"/></svg>