<svg width="28" height="20" fill="none" xmlns="http://www.w3.org/2000/svg"><path opacity=".7" d="M17.5 7.5h6.738l-4.163-5H17.5v5zm3.125 10.625c.488 0 .925-.163 1.3-.538s.575-.812.575-1.337c0-.488-.2-.925-.575-1.3-.375-.375-.813-.575-1.3-.575-.525 0-.962.2-1.337.575a1.766 1.766 0 00-.538 1.3c0 .525.163.962.538 1.337s.812.538 1.337.538zm-14.375 0c.55 0 1-.163 1.35-.538a1.88 1.88 0 00.525-1.337c0-.488-.175-.925-.525-1.3-.35-.375-.8-.575-1.35-.575s-1 .2-1.35.575c-.35.375-.525.813-.525 1.3 0 .525.175.962.525 1.337.35.375.8.538 1.35.538zM21.25 0l6.25 7.5v8.75h-3.125c0 1.038-.387 1.913-1.137 2.663C22.5 19.65 21.625 20 20.625 20c-1.038 0-1.913-.35-2.65-1.087-.75-.75-1.1-1.625-1.1-2.663H10c0 1.038-.375 1.913-1.113 2.663C8.125 19.65 7.262 20 6.25 20c-1.013 0-1.875-.35-2.638-1.087-.737-.75-1.112-1.625-1.112-2.663H0v-5h10.238L2.5 5.138V8.75H0v-7.5h1.25L15 8.825V0h6.25z" fill="#fff"/></svg>