<svg width="97" height="97" fill="none" xmlns="http://www.w3.org/2000/svg"><path d="M51 6.467v-2.5h-5v2.5h5zM46 29.1v2.5h5v-2.5h-5zm5 38.8v-2.5h-5v2.5h5zm-5 22.633v2.5h5v-2.5h-5zM29.1 50.971h2.5v-5h-2.5v5zm-22.633-5h-2.5v5h2.5v-5zm74.366 5h2.5v-5h-2.5v5zm-12.933-5h-2.5v5h2.5v-5zM46 6.467V29.1h5V6.467h-5zM46 67.9v22.633h5V67.9h-5zM29.1 45.97H6.467v5H29.1v-5zm51.733 0H67.9v5h12.933v-5zM14.4 17.935l19.4 19.4 3.535-3.535-19.4-19.4-3.535 3.535zM79.066 14.4l-19.4 19.4 3.535 3.535 19.4-19.4-3.535-3.535zM17.934 82.6l19.4-19.4-3.535-3.535-19.4 19.4 3.535 3.535zm41.732-19.4l19.4 19.4 3.535-3.535-19.4-19.4-3.535 3.535z" fill="#000"/></svg>