<svg width="33" height="33" fill="none" xmlns="http://www.w3.org/2000/svg"><circle cx="16.5" cy="16.5" r="16.5" fill="#FF9739"/><g clip-path="url(#clip0)"><path d="M21.871 18.766l-2.569-1.1a.55.55 0 00-.642.158l-1.137 1.39a8.501 8.501 0 01-4.065-4.065l1.39-1.137a.55.55 0 00.159-.642l-1.101-2.57a.554.554 0 00-.631-.318l-2.386.55a.55.55 0 00-.426.537c0 5.883 4.768 10.642 10.642 10.642a.55.55 0 00.537-.426l.55-2.386a.557.557 0 00-.32-.633z" fill="#fff"/></g><defs><clipPath id="clip0"><path fill="#fff" transform="translate(10.463 10.464)" d="M0 0h11.743v11.743H0z"/></clipPath></defs></svg>